<svg id="e8MAUxiGQNS1" xmlns="http://www.w3.org/2000/svg" xmlns:xlink="http://www.w3.org/1999/xlink" viewBox="0 0 640 360" shape-rendering="geometricPrecision" text-rendering="geometricPrecision" project-id="2696fbee1a9a4feabe632af69e283f49" export-id="d0412fc50feb450fb579cb182b6bd934" cached="false"><rect width="640" height="360" rx="0" ry="0" fill="#693ae0" stroke-width="0"/><ellipse rx="177.528" ry="177.528" transform="matrix(1.46254 0 0 1.46254 0 360)" fill="#ecebf2" stroke-width="0"/><polygon points="0,-248.111737 235.968285,-76.670743 145.83642,200.726612 -145.83642,200.726612 -235.968285,-76.670743 0,-248.111737" transform="matrix(-.590237 0.80723-.80723-.590237 358.743-13.9842)" fill="#ecebf2" stroke-width="0"/><polygon points="0,-215.304833 63.276503,-87.092635 204.767065,-66.532852 102.383532,33.266426 126.553006,174.185269 0,107.652417 -126.553006,174.185269 -102.383532,33.266426 -204.767065,-66.532852 -63.276503,-87.092635 0,-215.304833" transform="matrix(-.800137 0.599817-.599817-.800137 646.189 292.283)" fill="#ecebf2" stroke-width="0"/><rect width="640" height="360" rx="0" ry="0" transform="translate(0 0.000027)" opacity="0.9" fill="#8970ce" stroke-width="0"/></svg>
