<svg id="eXrYUKQfOjx1" xmlns="http://www.w3.org/2000/svg" xmlns:xlink="http://www.w3.org/1999/xlink" viewBox="0 0 640 360" shape-rendering="geometricPrecision" text-rendering="geometricPrecision"><rect width="640" height="360" rx="0" ry="0" fill="#14110f" stroke-width="0"/><ellipse rx="177.52809" ry="177.52809" transform="matrix(1.462538 0 0 1.462538 0 360)" fill="#34312d" stroke-width="0"/><polygon points="0,-248.111737 235.968285,-76.670743 145.83642,200.726612 -145.83642,200.726612 -235.968285,-76.670743 0,-248.111737" transform="matrix(-.590237 0.80723-.80723-.590237 358.742924-13.984231)" fill="#34312d" stroke-width="0"/><polygon points="0,-215.304833 63.276503,-87.092635 204.767065,-66.532852 102.383532,33.266426 126.553006,174.185269 0,107.652417 -126.553006,174.185269 -102.383532,33.266426 -204.767065,-66.532852 -63.276503,-87.092635 0,-215.304833" transform="matrix(-.800137 0.599817-.599817-.800137 646.189314 292.282807)" fill="#2b2b2b" stroke-width="0"/><rect width="640" height="360" rx="0" ry="0" opacity="0.86" fill="#14110f" stroke-width="0"/></svg>
