<svg xmlns="http://www.w3.org/2000/svg" xmlns:xlink="http://www.w3.org/1999/xlink" width="500" zoomAndPan="magnify" viewBox="0 0 375 374.999991" height="500" preserveAspectRatio="xMidYMid meet" version="1.0"><defs><clipPath id="4ec7956302"><path d="M 17.25 0 L 357.75 0 C 362.324219 0 366.710938 1.816406 369.949219 5.050781 C 373.183594 8.289062 375 12.675781 375 17.25 L 375 357.75 C 375 362.324219 373.183594 366.710938 369.949219 369.949219 C 366.710938 373.183594 362.324219 375 357.75 375 L 17.25 375 C 12.675781 375 8.289062 373.183594 5.050781 369.949219 C 1.816406 366.710938 0 362.324219 0 357.75 L 0 17.25 C 0 12.675781 1.816406 8.289062 5.050781 5.050781 C 8.289062 1.816406 12.675781 0 17.25 0 Z M 17.25 0 " clip-rule="nonzero"/></clipPath><clipPath id="7270d56024"><path d="M 43.824219 88 L 331.074219 88 L 331.074219 298 L 43.824219 298 Z M 43.824219 88 " clip-rule="nonzero"/></clipPath><clipPath id="b2adb48565"><path d="M 43.824219 87.644531 L 331.074219 87.644531 L 331.074219 325 L 43.824219 325 Z M 43.824219 87.644531 " clip-rule="nonzero"/></clipPath></defs><g clip-path="url(#4ec7956302)"><rect x="-37.5" width="450" fill="#d5d5d5" y="-37.499999" height="449.999989" fill-opacity="1"/></g><g clip-path="url(#7270d56024)"><path fill="#2b2b2b" d="M 50.070312 148.941406 C 50.398438 148.761719 50.738281 148.597656 51.085938 148.449219 L 177.542969 90.96875 C 183.835938 88.109375 191.058594 88.109375 197.351562 90.96875 L 324.054688 148.5625 C 333.410156 152.8125 333.410156 166.101562 324.054688 170.351562 L 197.351562 227.945312 C 191.058594 230.804688 183.835938 230.804688 177.542969 227.945312 L 67.761719 178.042969 L 67.761719 213.316406 C 67.761719 219.925781 62.402344 225.285156 55.792969 225.285156 C 49.179688 225.285156 43.824219 219.925781 43.824219 213.316406 L 43.824219 159.457031 C 43.824219 159.269531 43.828125 159.085938 43.835938 158.902344 C 44.011719 154.953125 46.089844 151.082031 50.070312 148.941406 Z M 283.199219 212.863281 L 283.199219 239.9375 C 283.199219 244.429688 281.933594 248.835938 279.546875 252.644531 C 260.96875 282.296875 229.738281 297.097656 187.449219 297.097656 C 145.160156 297.097656 113.925781 282.296875 95.351562 252.644531 C 92.964844 248.835938 91.699219 244.433594 91.699219 239.9375 L 91.699219 212.863281 L 177.542969 251.882812 C 183.835938 254.742188 191.058594 254.742188 197.351562 251.882812 Z M 283.199219 212.863281 " fill-opacity="1" fill-rule="evenodd"/></g><g clip-path="url(#b2adb48565)"><path stroke-linecap="butt" transform="matrix(11.968749, 0, 0, 11.968749, 43.822634, 87.645258)" fill="none" stroke-linejoin="miter" d="M 0.521999 5.12135 C 0.549414 5.106337 0.577809 5.092629 0.606856 5.080227 L 11.172458 0.277681 C 11.698241 0.0387774 12.3017 0.0387774 12.827484 0.277681 L 23.413647 5.089692 C 24.195305 5.444783 24.195305 6.555097 23.413647 6.910188 L 12.827484 11.722199 C 12.3017 11.961103 11.698241 11.961103 11.172458 11.722199 L 2.000133 7.552812 L 2.000133 10.499941 C 2.000133 11.05216 1.552352 11.499941 1.000133 11.499941 C 0.447587 11.499941 0.000132439 11.05216 0.000132439 10.499941 L 0.000132439 5.99994 C 0.000132439 5.984274 0.00045881 5.968935 0.00111155 5.953595 C 0.0157982 5.623634 0.189428 5.300201 0.521999 5.12135 Z M 20.000135 10.462081 L 20.000135 12.724157 C 20.000135 13.099484 19.894391 13.46763 19.694978 13.785842 C 18.142759 16.263322 15.533424 17.499941 12.000134 17.499941 C 8.466844 17.499941 5.857183 16.263322 4.30529 13.785842 C 4.105877 13.46763 4.000133 13.09981 4.000133 12.724157 L 4.000133 10.462081 L 11.172458 13.722199 C 11.698241 13.961103 12.3017 13.961103 12.827484 13.722199 Z M 20.000135 10.462081 " stroke="#14110f" stroke-width="0.408" stroke-opacity="1" stroke-miterlimit="4"/></g></svg>